<?xml version="1.0" standalone="no"?>
<!DOCTYPE svg PUBLIC "-//W3C//DTD SVG 20010904//EN"
 "http://www.w3.org/TR/2001/REC-SVG-20010904/DTD/svg10.dtd">
<svg version="1.0" xmlns="http://www.w3.org/2000/svg"
 width="196.000000pt" height="196.000000pt" viewBox="0 0 196.000000 196.000000"
 preserveAspectRatio="xMidYMid meet">
<metadata>
Created by potrace 1.11, written by Peter Selinger 2001-2013
</metadata>
<g transform="translate(0.000000,196.000000) scale(0.100000,-0.100000)"
fill="#000000" stroke="none">
<path d="M136 1549 c-69 -104 -126 -193 -126 -198 0 -8 43 -41 55 -41 2 0 63
87 134 193 l129 193 -33 21 -33 22 -126 -190z"/>
<path d="M1660 1712 l-23 -18 58 -87 58 -87 29 18 c15 9 26 22 24 29 -10 26
-107 163 -115 163 -5 0 -19 -8 -31 -18z"/>
<path d="M245 1504 c-60 -92 -118 -179 -128 -194 l-18 -28 33 -20 32 -21 128
192 c70 106 128 194 128 197 0 5 -54 40 -62 40 -1 0 -52 -75 -113 -166z"/>
<path d="M1570 1653 c-14 -9 -27 -18 -29 -19 -3 -2 231 -357 249 -378 5 -4 22
0 38 10 l30 17 -129 194 c-71 106 -130 193 -132 193 -1 0 -14 -8 -27 -17z"/>
<path d="M326 1409 c-98 -147 -125 -194 -114 -201 35 -23 51 -29 58 -21 4 4
63 91 130 192 l122 184 -23 18 c-13 10 -29 19 -35 19 -6 0 -68 -86 -138 -191z"/>
<path d="M1462 1582 l-22 -17 56 -85 c31 -47 58 -87 60 -89 1 -2 16 7 33 18
l30 22 -56 84 c-31 47 -61 85 -67 85 -6 0 -21 -8 -34 -18z"/>
<path d="M1805 1506 l-28 -22 58 -87 58 -87 28 17 c16 10 29 21 29 26 0 8 -66
109 -100 154 l-17 21 -28 -22z"/>
<path d="M1602 1372 l-22 -17 56 -85 c31 -47 58 -87 60 -89 1 -2 16 7 33 18
l30 22 -56 84 c-31 47 -61 85 -67 85 -6 0 -21 -8 -34 -18z"/>
<path d="M560 1188 l0 -163 98 -100 97 -100 -97 95 -98 95 0 -40 c0 -39 7 -47
163 -203 l162 -162 67 0 67 0 4 48 3 47 2 -47 c3 -81 26 -69 209 114 l163 163
0 207 0 208 -68 0 -67 0 -115 -115 -115 -115 -55 0 -55 0 -115 115 -115 115
-67 0 -68 0 0 -162z"/>
<path d="M228 759 l-27 -20 121 -182 c66 -100 124 -186 129 -191 4 -5 21 0 39
11 l30 19 -121 180 c-67 98 -126 184 -133 191 -8 9 -17 7 -38 -8z"/>
<path d="M1640 691 l-60 -90 31 -17 c36 -18 31 -22 98 78 l51 77 -30 21 -29
21 -61 -90z"/>
<path d="M128 693 l-26 -17 59 -88 60 -89 29 21 29 21 -56 84 c-31 47 -59 85
-62 85 -3 0 -18 -8 -33 -17z"/>
<path d="M1737 625 l-56 -84 29 -21 29 -20 60 87 61 87 -27 18 c-16 10 -31 18
-34 18 -3 0 -31 -38 -62 -85z"/>
<path d="M37 632 c-15 -9 -26 -22 -25 -28 6 -23 243 -374 253 -374 6 0 21 9
34 19 l23 18 -122 184 c-67 101 -125 187 -129 191 -3 4 -18 -1 -34 -10z"/>
<path d="M1835 563 l-57 -86 23 -18 c13 -10 29 -19 34 -19 10 0 115 153 115
168 0 4 -13 15 -29 25 l-28 17 -58 -87z"/>
<path d="M1501 483 l-61 -87 27 -18 c16 -10 31 -18 34 -18 3 0 31 38 62 85
l56 84 -29 21 -29 20 -60 -87z"/>
<path d="M268 483 l-26 -17 59 -88 60 -89 29 21 29 21 -56 84 c-31 47 -59 85
-62 85 -3 0 -18 -8 -33 -17z"/>
<path d="M1597 415 l-56 -84 29 -21 29 -21 60 89 59 89 -28 16 c-15 10 -30 17
-33 17 -2 0 -29 -38 -60 -85z"/>
<path d="M1695 353 l-57 -86 23 -18 c13 -10 29 -19 34 -19 11 0 115 153 115
169 0 8 -43 41 -53 41 -2 0 -30 -39 -62 -87z"/>
</g>
</svg>
